Coordinates
version=1
nRows=8
nColumns=36
inDegrees=yes

Units are S.I. units (second, meters, Newtons, ...)
If the header above contains a line with 'inDegrees', this indicates whether rotational values are in degrees (yes) or radians (no).

endheader
time	pelvis_tilt	pelvis_list	pelvis_rotation	pelvis_tx	pelvis_ty	pelvis_tz	hip_flexion_r	hip_adduction_r	hip_rotation_r	knee_angle_r	knee_angle_r_beta	ankle_angle_r	subtalar_angle_r	mtp_angle_r	hip_flexion_l	hip_adduction_l	hip_rotation_l	knee_angle_l	knee_angle_l_beta	ankle_angle_l	subtalar_angle_l	mtp_angle_l	lumbar_extension	lumbar_bending	lumbar_rotation	arm_flex_r	arm_add_r	arm_rot_r	elbow_flex_r	pro_sup_r	arm_flex_l	arm_add_l	arm_rot_l	elbow_flex_l	pro_sup_l
      4.93333330	     -8.84893049	      2.33665730	      1.24453161	      0.42261976	      1.02209696	     -0.10485782	      9.89466404	     -7.78793287	      2.86843093	     13.48864431	      0.23542125	     -3.13902770	    -23.97591907	     -7.49999987	     10.79574421	     -2.57727416	      6.63710727	     13.51099562	      0.23581136	     -8.07469657	    -19.67206348	     -7.49999987	    -13.99442864	      0.39995273	     -3.38764914	      9.88847498	     -7.40223046	     10.75371923	     34.24759410	     79.69310429	     11.46860966	     -7.98883499	     25.37871018	     27.72427994	     78.04386998
      4.93750000	     -8.64755205	      2.43698001	      1.13468747	      0.43095067	      1.01914566	     -0.10480858	      9.44654928	     -7.88988233	      2.75158377	     13.27774569	      0.23174038	     -3.40251317	    -23.90879183	     -7.49999987	     10.24360002	     -2.51155961	      6.64037307	     13.15858882	      0.22966070	     -8.28304445	    -19.74345759	     -7.49999987	    -14.06395938	      0.20751141	     -3.28353392	      9.28038909	     -7.29828234	     10.31917428	     32.86641705	     79.81146596	     10.93326382	     -7.90225416	     25.07130367	     26.67332704	     78.02097455
      4.94166670	     -8.34521640	      2.51310648	      0.89982750	      0.43456978	      1.02550233	     -0.10044530	      8.72292100	     -7.88079339	      2.60581651	     12.78203522	      0.22308860	     -3.60820952	    -23.67415525	     -7.49999987	      9.30579275	     -2.56666084	      6.44315087	     12.46005932	      0.21746906	     -8.71742113	    -19.74316334	     -7.49999987	    -14.13061745	      0.00423530	     -3.11704696	      8.62409482	     -7.15986703	     10.07588958	     31.54963955	     79.93547520	     10.31227538	     -7.88454266	     24.95651358	     25.69842734	     78.00428863
      4.94583330	     -8.06443624	      2.55424232	      0.61032264	      0.43468540	      1.02213600	     -0.09969445	      8.21554638	     -7.84329861	      2.43051169	     12.55109160	      0.21905787	     -3.65269136	    -23.45315968	     -7.49999987	      8.50785387	     -2.66210623	      6.23801986	     11.99983956	      0.20943671	     -9.05126962	    -19.95215973	     -7.49999987	    -14.13113145	     -0.16052239	     -2.92592591	      8.13207466	     -7.08730663	     10.40176876	     30.35974181	     79.53120331	      9.74983637	     -7.88959858	     25.15173414	     24.78720494	     77.20061939
      4.95000000	     -7.73358774	      2.58324717	      0.27849056	      0.43920913	      1.01969609	     -0.08551184	      7.53956877	     -7.52648303	      2.73476542	     12.18949477	      0.21274682	     -4.01288363	    -24.05276638	     -7.49999987	      7.51385512	     -3.04911091	      5.73011944	     11.33320792	      0.19780179	     -9.37903088	    -19.82668179	     -7.49999987	    -14.24362590	     -0.58614542	     -2.43753087	      7.34613489	     -6.72082826	     10.39013267	     29.72402819	     78.61146457	      9.18470838	     -8.14757951	     24.78177209	     24.15483809	     76.24354027
      4.95416670	     -7.58942815	      2.47967060	      0.00677594	      0.43932813	      1.02267411	     -0.08557920	      7.05814143	     -7.15586074	      2.45651083	     11.78142700	      0.20562469	     -3.76690918	    -23.49850914	     -7.49999987	      6.64403363	     -3.50685004	      5.53363812	     10.47943436	      0.18290063	     -9.58041137	    -19.37028221	     -7.49999987	    -14.14624694	     -0.75780240	     -2.18748326	      6.95275310	     -6.41826346	     10.41718470	     28.65968372	     78.79535344	      8.69675618	     -8.40919561	     24.61729665	     23.34395280	     76.27190709
      4.95833330	     -7.27208404	      2.37174577	     -0.25579907	      0.43482820	      1.02330556	     -0.09019783	      6.62616241	     -6.88952407	      2.36732299	     11.59003594	      0.20228429	     -3.35810849	    -22.92031441	     -7.49999987	      5.96970041	     -3.82399796	      5.19986083	     10.05850212	      0.17555398	     -9.65127865	    -19.14552326	     -7.49999987	    -14.47706608	     -0.79318724	     -1.95788854	      7.04449779	     -6.29352140	     10.38332401	     27.52270285	     79.19676444	      8.53301214	     -8.44281527	     24.05146048	     22.29272138	     76.26817719
      4.96250000	     -7.15320732	      2.32788375	     -0.54512261	      0.43481678	      1.01729897	     -0.08964975	      6.64491027	     -6.72104810	      2.69247430	     11.76630326	      0.20536073	     -3.34419360	    -23.15853857	     -7.49999987	      5.53314656	     -3.98477046	      4.99022229	      9.67262884	      0.16881922	     -9.61233009	    -19.13077741	     -7.49999987	    -14.63091186	     -0.84396719	     -1.69860842	      6.89381138	     -6.27433585	     10.23244873	     26.78647647	     79.05431203	      8.17273944	     -8.44751772	     23.09006285	     21.60696073	     75.76859852
